<?xml version="1.0" standalone="no"?>
<!DOCTYPE svg PUBLIC "-//W3C//DTD SVG 20010904//EN"
 "http://www.w3.org/TR/2001/REC-SVG-20010904/DTD/svg10.dtd">
<svg version="1.0" xmlns="http://www.w3.org/2000/svg"
 width="1280.000000pt" height="1005.000000pt" viewBox="0 0 1280.000000 1005.000000"
 preserveAspectRatio="xMidYMid meet">
<metadata>
Created by potrace 1.15, written by Peter Selinger 2001-2017
</metadata>
<g transform="translate(0.000000,1005.000000) scale(0.100000,-0.100000)"
fill="#000000" stroke="none">
<path d="M2605 10013 c-220 -14 -520 -53 -635 -82 -61 -15 -269 -78 -435 -131
-88 -28 -187 -59 -221 -70 -78 -24 -196 -44 -409 -70 -172 -20 -333 -50 -402
-74 l-37 -13 74 -52 c81 -57 66 -59 -42 -5 -76 38 -117 46 -48 9 l45 -24 -66
6 c-41 3 -73 1 -85 -5 -15 -9 -7 -11 43 -12 83 0 150 -15 255 -57 98 -39 133
-66 77 -58 -47 6 -499 -7 -499 -14 0 -3 121 -5 270 -3 222 2 270 0 270 -11 0
-8 35 -26 88 -44 123 -43 330 -180 409 -270 116 -133 179 -196 236 -235 31
-21 57 -40 57 -42 0 -1 -28 1 -62 5 -76 9 -373 33 -673 54 -267 19 -432 39
-589 71 -126 27 -164 27 -69 1 155 -43 372 -69 783 -97 583 -38 623 -44 747
-99 242 -107 586 -176 1108 -221 260 -23 297 -31 635 -138 85 -28 164 -51 175
-53 12 -3 -17 -21 -85 -55 l-105 -50 -75 23 c-101 32 -391 105 -570 142 -243
51 -295 60 -1258 222 -851 143 -945 160 -1077 204 -11 4 -7 -2 10 -13 38 -26
218 -75 365 -101 63 -11 318 -54 565 -96 1271 -214 1494 -256 1823 -347 149
-40 209 -63 142 -53 -19 3 -75 10 -124 15 -49 6 -115 22 -147 35 -45 18 -59
20 -59 10 0 -8 8 -19 18 -25 14 -9 13 -10 -8 -6 -14 3 -88 10 -165 16 -77 6
-214 18 -304 25 -91 8 -166 13 -169 11 -7 -7 62 -24 143 -35 44 -7 211 -23
370 -36 160 -14 309 -31 333 -38 l42 -13 -57 -21 c-257 -96 -468 -195 -553
-262 -36 -28 -94 -72 -130 -98 -36 -26 -88 -66 -115 -89 l-50 -41 -130 -5
c-101 -4 -144 -10 -195 -28 -123 -43 -217 -101 -333 -203 l-68 -60 15 39 c14
35 4 27 -92 -71 -122 -125 -230 -264 -270 -347 -24 -50 -31 -57 -65 -63 -21
-4 -69 -23 -107 -42 -102 -50 -153 -114 -260 -318 -53 -102 -94 -169 -102
-168 -16 3 -107 -198 -164 -365 -35 -102 -41 -128 -33 -155 10 -35 3 -190 -11
-222 -93 -222 -125 -333 -125 -439 l0 -88 36 -32 c20 -17 70 -48 110 -69 41
-21 119 -62 174 -92 123 -68 195 -92 227 -78 17 7 48 3 128 -19 141 -38 333
-75 455 -87 164 -17 436 13 643 70 67 19 82 19 163 9 113 -15 227 -1 343 41
97 35 222 104 286 158 37 31 50 37 64 29 26 -14 150 -4 211 17 123 42 351 175
437 254 l52 48 60 -15 c34 -7 80 -12 104 -10 23 2 42 1 41 -2 0 -3 -41 -39
-92 -80 -220 -180 -638 -562 -725 -662 -33 -38 -48 -70 -76 -160 -44 -142
-103 -356 -156 -568 -23 -91 -46 -168 -52 -171 -6 -4 -31 -9 -56 -13 -111 -15
-281 -128 -366 -245 -50 -68 -156 -275 -210 -411 -68 -173 -99 -298 -100 -405
-1 -86 1 -93 37 -158 20 -37 37 -69 37 -72 0 -2 -70 -26 -156 -54 -210 -69
-287 -121 -301 -206 -4 -25 -1 -41 11 -54 25 -28 39 -25 -367 -61 -148 -13
-214 -43 -221 -102 -2 -13 -9 -36 -16 -53 -17 -40 -18 -129 -1 -149 12 -14 10
-16 -10 -16 -20 0 -18 -3 14 -20 46 -25 99 -25 352 -5 178 15 188 14 200 -2
12 -16 34 -18 230 -18 205 0 216 0 196 -17 -12 -9 -51 -26 -88 -39 -50 -16
-62 -24 -50 -30 9 -5 123 -25 254 -44 131 -19 281 -44 333 -54 52 -11 149 -25
215 -32 80 -8 203 -32 370 -74 170 -43 288 -67 370 -75 66 -6 161 -15 210 -20
50 -5 171 -16 270 -25 285 -25 289 -25 276 -38 -9 -9 -72 -11 -229 -8 -119 3
-275 4 -347 4 -71 -1 -254 -1 -405 -2 -151 -1 -313 -6 -360 -11 -47 -6 -164
-15 -260 -20 -369 -19 -481 -32 -970 -111 -62 -10 -298 -74 -307 -83 -13 -12
16 -28 102 -56 53 -16 101 -30 108 -30 7 0 28 -13 47 -29 38 -30 154 -71 260
-92 36 -6 103 -20 150 -31 163 -37 186 -40 335 -47 83 -5 227 -20 321 -34 94
-15 184 -26 200 -26 16 1 128 -2 249 -6 135 -5 255 -3 310 3 60 7 132 7 215 0
69 -5 240 -13 380 -17 140 -3 248 -9 240 -13 -8 -3 -105 -20 -215 -37 -110
-17 -249 -40 -310 -51 -60 -11 -256 -45 -435 -75 -179 -30 -399 -69 -490 -85
-91 -17 -187 -35 -215 -40 -289 -52 -441 -82 -477 -96 -24 -9 -57 -18 -75 -21
-17 -3 -34 -11 -37 -19 -3 -8 -2 -14 2 -14 4 0 63 -9 132 -21 226 -36 244 -39
308 -39 65 0 82 -12 35 -26 -190 -52 1211 28 1832 106 83 10 222 26 310 35
294 30 461 53 735 105 85 16 211 38 280 50 69 13 253 51 410 86 250 55 384 85
725 165 44 11 118 28 165 39 47 10 168 39 270 64 170 41 196 44 320 45 l135 1
-46 -43 c-25 -23 -38 -36 -29 -29 9 6 20 12 24 12 4 0 17 9 29 21 12 11 30 25
40 30 25 14 21 -6 -5 -24 -19 -13 -20 -16 -6 -16 10 -1 32 12 50 27 38 33 68
46 68 30 0 -7 4 -7 13 -1 6 6 40 13 75 16 50 4 62 2 58 -8 -3 -10 6 -9 37 5
23 10 78 21 121 24 70 6 78 5 67 -8 -11 -13 -9 -14 17 -7 16 5 39 14 50 20 26
14 62 14 62 1 0 -16 26 -11 53 11 22 16 30 18 48 9 12 -7 19 -8 15 -2 -6 10
20 15 134 27 25 3 99 14 165 23 104 16 125 17 160 5 26 -9 41 -10 43 -3 2 5
10 10 18 10 9 0 12 4 9 10 -14 22 48 24 195 5 19 -2 14 1 -12 7 -27 5 -48 14
-48 18 0 4 21 13 48 20 72 20 192 77 217 104 l23 24 223 0 c205 0 234 2 341
26 137 30 293 85 360 128 32 20 54 44 68 74 25 51 26 51 120 4 38 -19 78 -30
130 -34 l75 -7 -108 46 c-59 25 -112 45 -117 45 -5 0 -12 5 -16 11 -5 8 19 9
87 4 128 -10 107 10 -31 30 -58 8 -111 15 -117 15 -7 0 -13 6 -13 14 0 9 20
15 66 20 36 4 73 11 82 16 9 5 68 14 131 20 113 11 256 44 581 134 273 75 303
85 319 101 14 13 12 15 -14 15 -15 0 -36 -7 -45 -15 -9 -8 -54 -22 -100 -31
-85 -16 -280 -62 -680 -161 -124 -30 -253 -57 -286 -60 l-62 -6 -41 61 c-49
72 -128 140 -214 181 -66 33 -164 61 -208 61 -15 0 -29 5 -31 11 -5 15 -146
61 -177 57 -20 -2 -27 -9 -29 -30 -2 -19 -10 -29 -25 -32 -19 -4 -129 -18
-177 -22 -8 -1 -22 -4 -30 -7 -8 -3 -42 -13 -75 -22 -33 -9 -91 -25 -129 -35
-68 -19 -70 -19 -109 1 -38 20 -67 20 -67 0 0 -5 9 -13 20 -16 35 -11 22 -22
-40 -32 -49 -8 -62 -7 -77 6 -15 14 -16 14 -5 0 10 -13 1 -17 -63 -32 -84 -20
-193 -63 -271 -108 l-54 -30 -158 16 c-86 9 -161 17 -166 19 -5 1 21 17 57 34
37 18 75 46 86 61 16 23 31 30 73 35 29 4 64 10 77 13 23 6 24 6 5 21 -14 11
-16 16 -6 19 8 3 47 28 88 55 87 58 124 106 124 161 0 34 -3 38 -30 44 -16 3
-30 9 -30 13 0 4 34 15 75 25 42 9 86 26 100 36 24 19 65 113 65 148 0 30 81
97 126 104 22 4 48 13 59 21 18 13 18 14 -10 9 -17 -2 -52 -9 -79 -15 -35 -8
-50 -8 -55 1 -6 8 -23 8 -67 -3 -32 -8 -49 -15 -36 -15 12 -1 22 -4 22 -7 0
-14 -154 -205 -184 -227 -66 -51 -162 -97 -201 -97 -49 0 -112 -32 -176 -89
-47 -42 -52 -51 -57 -99 l-5 -53 -51 0 c-28 0 -104 -2 -168 -5 -81 -4 -118 -2
-118 5 0 6 -7 11 -16 11 -8 0 -13 -4 -10 -9 8 -13 -91 -23 -166 -16 -42 4 -69
2 -73 -5 -3 -5 -22 -10 -41 -10 -21 0 -33 4 -29 10 3 6 -1 10 -10 10 -9 0 -14
-4 -11 -9 3 -5 -17 -11 -45 -15 -89 -12 -154 -43 -200 -94 l-41 -47 41 -6 c77
-10 52 -17 -91 -23 -162 -7 -338 -24 -384 -35 -20 -6 -54 -2 -100 9 -59 15
-228 42 -411 65 -49 6 -52 8 -56 38 l-4 32 -1 -33 -2 -33 -92 3 c-51 1 -99 -1
-106 -6 -9 -5 -51 17 -126 67 -101 67 -120 76 -187 87 -116 18 -113 17 -89 48
36 45 1 110 -80 152 -52 27 -184 66 -284 85 -80 15 -135 38 -136 57 0 4 15 14
33 22 17 8 41 21 52 29 36 28 10 27 -51 -2 l-59 -28 -43 19 c-24 11 -48 16
-55 11 -6 -4 -48 -13 -92 -19 l-80 -10 60 -8 c33 -4 71 -9 83 -12 36 -7 120
-91 128 -127 9 -41 96 -125 167 -161 65 -32 148 -56 200 -56 34 0 37 -2 37
-29 0 -16 4 -41 10 -55 10 -26 90 -84 168 -121 56 -27 53 -41 -8 -37 -8 0 -17
-3 -20 -6 -3 -4 -17 -13 -33 -19 -16 -8 -27 -20 -27 -33 0 -23 -12 -27 -135
-35 -103 -7 -158 -19 -340 -78 l-130 -41 -220 -3 c-121 -1 -236 -3 -255 -3
-19 0 -179 40 -355 89 -355 100 -388 107 -695 155 -118 19 -229 41 -246 50
-39 20 -285 79 -439 105 -164 28 -385 43 -595 41 -96 -1 -272 2 -390 5 -118 4
-276 2 -350 -3 -74 -6 -137 -8 -140 -5 -3 2 4 11 15 20 18 14 14 15 -50 9 -38
-4 -83 -9 -100 -12 -25 -4 -27 -3 -12 6 10 6 74 13 142 16 69 3 144 8 166 12
l41 7 -71 63 c-67 60 -82 84 -62 96 5 3 71 13 147 22 76 9 155 22 174 29 19 7
94 34 165 59 130 47 130 47 215 131 84 82 86 83 178 109 179 51 370 146 487
243 132 109 257 286 395 561 98 197 128 274 140 363 l11 81 86 106 c207 255
362 479 428 618 19 39 97 228 173 420 145 361 224 547 273 646 l29 57 37 -16
c91 -38 223 1 384 112 45 30 83 55 86 55 3 0 58 -35 122 -79 149 -100 306
-195 390 -234 62 -29 74 -31 181 -32 63 0 127 3 142 7 25 8 27 5 44 -45 37
-113 87 -197 118 -197 7 0 41 -19 74 -41 68 -46 67 -44 52 -149 -34 -234 -40
-496 -15 -630 16 -86 79 -309 95 -340 7 -13 1 -25 -26 -51 -117 -112 -167
-379 -145 -763 12 -193 38 -379 66 -456 19 -54 45 -315 45 -459 l0 -104 -37
-31 c-85 -72 -103 -95 -103 -137 0 -55 24 -65 118 -50 39 6 78 8 87 5 9 -4 26
-25 37 -48 l22 -41 20 105 c11 58 21 107 23 109 1 2 12 -8 24 -23 33 -42 158
-146 175 -146 13 0 15 6 9 28 -12 49 -57 114 -135 196 l-77 81 -5 90 -5 89 54
79 c179 263 251 557 214 875 -22 183 -81 365 -151 466 l-40 57 79 112 79 112
18 372 18 372 66 -1 c112 -1 169 34 304 185 180 204 287 353 328 457 17 45 27
59 38 54 129 -54 348 -44 568 25 50 16 92 26 92 22 0 -15 -63 -81 -78 -82 -11
0 -12 -2 -4 -6 6 -2 10 -8 7 -13 -6 -10 131 -270 183 -345 142 -206 275 -268
472 -221 76 18 93 20 85 6 -10 -16 7 -12 19 5 7 9 86 31 196 55 102 23 223 55
270 71 47 16 91 31 98 32 8 1 33 -59 71 -174 77 -231 118 -316 239 -495 109
-162 166 -233 226 -282 32 -27 46 -32 91 -32 l53 0 94 -98 c204 -213 285 -340
617 -967 l111 -209 -75 -69 c-78 -71 -95 -98 -47 -73 15 8 56 22 90 30 l62 16
60 -30 c33 -17 60 -26 60 -21 0 4 -7 28 -15 51 -8 23 -15 46 -15 49 0 4 38 -6
86 -21 119 -40 152 -25 102 48 -25 36 -111 97 -161 113 -51 18 -180 229 -242
396 -134 365 -252 611 -327 681 -18 17 -58 41 -88 54 -58 24 -140 69 -140 77
0 2 7 12 16 21 41 40 -11 267 -111 486 -87 191 -252 434 -409 603 l-76 82 9
42 c5 23 7 49 4 58 -21 68 -61 91 -155 91 l-63 0 -50 92 c-82 152 -169 259
-277 343 l-25 20 131 125 c72 69 144 132 160 140 27 14 29 13 57 -18 16 -17
27 -37 25 -44 -1 -7 -1 -9 2 -5 2 4 59 -45 125 -110 205 -198 354 -294 486
-313 34 -5 85 -16 114 -26 60 -19 293 -132 412 -199 156 -87 264 -120 344
-104 51 10 56 10 72 -9 9 -12 28 -59 42 -105 27 -84 58 -142 89 -160 26 -17
45 7 59 71 6 30 27 96 46 146 31 79 34 95 24 125 -9 31 -8 37 19 68 173 197
204 703 88 1462 -12 82 -12 83 11 102 46 38 104 27 268 -52 352 -168 1071
-479 1162 -503 99 -27 141 -48 141 -71 0 -26 61 -86 84 -83 50 7 19 104 -58
181 -40 40 -99 77 -251 159 -538 287 -825 429 -908 448 -23 6 -104 13 -179 16
l-137 6 -3 26 c-3 26 -6 27 -58 26 -30 0 -70 -2 -89 -5 l-33 -4 -25 100 -24
100 21 90 c98 430 140 618 140 623 0 3 9 -3 20 -13 30 -27 58 -7 139 99 38 50
173 215 301 366 233 277 330 398 330 414 0 39 -431 -355 -617 -564 -51 -57
-107 -131 -123 -162 -18 -34 -51 -74 -78 -95 -126 -103 -131 -110 -147 -208
-27 -159 -57 -295 -66 -295 -5 0 -9 6 -9 14 0 25 -103 254 -141 315 -21 33
-29 59 -30 95 -2 50 -2 50 -8 12 l-6 -39 -32 44 c-18 24 -61 75 -97 113 -35
38 -62 74 -60 80 2 6 -1 25 -6 41 -10 29 -10 29 -6 -7 3 -21 2 -38 0 -38 -3 0
-36 26 -72 57 -176 149 -380 247 -542 260 -115 9 -172 -8 -287 -82 -107 -70
-182 -115 -192 -115 -3 0 -19 24 -35 53 -50 89 -101 159 -171 235 -161 173
-338 270 -555 302 -36 5 -81 12 -100 14 -170 26 -377 50 -610 71 -25 2 -74 7
-110 10 -133 12 -543 7 -670 -9 -176 -22 -220 -31 -346 -74 -98 -34 -114 -37
-130 -24 -49 36 -288 146 -306 140 -5 -2 39 -25 99 -51 59 -26 132 -62 161
-80 l53 -33 -52 -33 -51 -34 -37 22 c-102 62 -381 181 -381 163 0 -4 35 -20
78 -36 81 -30 273 -123 307 -150 20 -14 19 -16 -24 -60 l-44 -45 -31 23 c-43
32 -56 39 -56 29 0 -4 18 -21 40 -36 l39 -28 -42 -58 c-23 -32 -47 -67 -53
-77 -10 -17 -14 -17 -73 10 -52 23 -68 26 -87 17 -13 -6 -24 -17 -24 -26 0
-19 16 -20 24 0 3 8 13 15 21 15 24 0 115 -41 115 -51 0 -5 -14 -34 -31 -64
-30 -54 -32 -55 -77 -56 l-47 -1 41 -10 41 -10 -19 -51 c-29 -77 -48 -108 -59
-101 -7 4 -9 -1 -5 -14 6 -16 -23 -4 -146 60 -84 44 -155 82 -157 83 -3 4 87
-2 147 -10 18 -2 30 0 27 4 -7 12 -175 111 -295 174 -58 31 -202 96 -320 145
-412 172 -714 321 -929 457 -66 42 -121 78 -121 80 0 3 12 0 28 -6 199 -78
531 -194 537 -187 2 2 -60 25 -138 52 -78 27 -218 78 -310 112 -163 61 -176
68 -420 227 -395 258 -868 543 -993 598 -25 12 -44 22 -42 24 2 2 52 -8 112
-21 60 -14 113 -23 119 -21 5 1 -60 18 -144 36 -85 18 -183 45 -219 58 -36 14
-105 35 -155 48 l-90 24 65 2 65 2 -55 7 c-56 8 -107 9 -195 3z m1645 -860 c3
-3 -15 5 -40 17 -42 21 -210 138 -210 146 0 4 241 -153 250 -163z m135 -88
c11 -9 -2 -5 -30 9 -27 13 -59 32 -70 41 -11 9 3 5 30 -9 28 -13 59 -32 70
-41z m-960 -651 c156 -13 202 -20 258 -42 37 -15 67 -29 67 -32 0 -4 -26 -19
-57 -34 l-58 -27 -240 76 c-280 88 -275 86 -210 80 28 -3 136 -12 240 -21z
m345 -39 c21 -25 6 -27 -41 -6 l-44 20 36 0 c21 1 42 -5 49 -14z m47 -1 c-3
-3 -12 -4 -19 -1 -8 3 -5 6 6 6 11 1 17 -2 13 -5z m668 -50 c22 -3 67 -21 100
-40 33 -20 51 -33 40 -28 -85 31 -130 44 -185 53 -35 6 -68 15 -73 20 -9 9 14
8 118 -5z m683 -55 l383 -31 316 -154 c174 -84 318 -155 320 -158 6 -6 -19
-96 -27 -96 -4 0 -32 9 -62 19 -70 24 -139 73 -251 178 -108 100 -152 123
-235 123 -51 0 -73 -6 -136 -39 l-75 -39 -348 112 c-191 62 -355 116 -363 119
-8 4 10 5 40 2 30 -3 227 -19 438 -36z m-206 -85 c185 -60 335 -110 333 -112
-6 -6 -388 96 -478 128 -89 31 -217 89 -217 97 0 3 6 3 13 0 6 -2 164 -53 349
-113z m-224 21 c4 -4 -11 0 -33 9 -22 10 -44 22 -50 27 -5 6 9 2 33 -9 23 -10
46 -22 50 -27z m1304 -91 l186 -96 -13 -37 c-7 -21 -18 -35 -26 -33 -18 4
-572 272 -581 281 -5 4 49 1 120 -5 l127 -13 187 -97z m-1117 15 c66 -17 122
-33 124 -35 2 -2 -16 -4 -41 -4 -25 0 -65 -2 -89 -5 -41 -5 -48 -3 -99 41 -30
26 -46 44 -35 41 11 -4 74 -20 140 -38z m319 -85 c33 -9 67 -19 75 -23 9 -6
-22 -37 -105 -105 l-119 -98 -15 24 c-8 12 -50 64 -92 115 -89 107 -95 100 81
102 75 1 134 -4 175 -15z m906 -266 c0 -12 -13 -10 -53 7 -55 23 -53 35 3 17
27 -9 50 -19 50 -24z m-13 -32 c1 -1 -4 -24 -11 -51 l-12 -50 -16 45 c-9 25
-19 53 -23 62 -6 16 -4 17 26 6 19 -6 35 -12 36 -12z m267 -1628 c11 -20 31
-52 43 -72 l23 -36 -58 -37 c-149 -94 -363 -238 -535 -360 l-189 -134 -292 93
c-160 50 -292 93 -294 94 -1 1 26 40 62 87 35 47 82 116 103 152 37 64 39 66
73 61 19 -3 121 -8 225 -12 205 -7 353 7 507 46 104 26 215 79 258 122 19 19
39 34 44 34 5 -1 18 -18 30 -38z m-489 -4858 c83 -6 197 -12 255 -15 58 -3
156 -8 217 -11 l112 -6 -16 -21 c-16 -21 -23 -22 -237 -22 -215 -1 -401 -13
-597 -40 -80 -11 -107 -11 -160 0 -35 7 -90 16 -121 20 -67 8 -75 21 -20 31
20 4 111 22 202 40 190 38 170 36 365 24z m990 -471 c4 -6 5 -12 4 -13 -9 -7
-152 -16 -145 -9 25 26 129 42 141 22z"/>
<path d="M3975 9840 c36 -17 669 -277 695 -285 22 -7 23 -9 6 -15 -13 -4 -2
-10 40 -19 33 -7 86 -23 119 -36 33 -12 168 -63 300 -113 482 -181 1042 -374
1050 -361 4 5 5 9 3 9 -33 0 -1188 419 -1188 431 0 4 37 -2 82 -13 45 -10 86
-17 91 -15 6 2 -39 14 -99 27 -202 43 -200 43 -939 343 -97 40 -219 76 -160
47z"/>
<path d="M3395 9815 c28 -7 59 -13 70 -13 11 0 -2 6 -30 13 -27 7 -59 13 -70
13 -11 0 3 -6 30 -13z"/>
<path d="M3495 9795 c26 -11 1057 -236 1061 -232 2 2 -233 56 -523 121 -466
103 -576 126 -538 111z"/>
<path d="M4590 9550 c14 -4 34 -8 45 -8 16 0 15 2 -5 8 -14 4 -34 8 -45 8 -16
0 -15 -2 5 -8z"/>
<path d="M7064 8923 c18 -35 45 -70 46 -60 0 8 -51 87 -57 87 -2 0 3 -12 11
-27z"/>
<path d="M7810 8903 c0 -4 5 -15 10 -23 8 -13 10 -13 10 2 0 9 -4 20 -10 23
-5 3 -10 3 -10 -2z"/>
<path d="M5114 8824 c39 -13 75 -24 80 -23 6 0 -20 11 -58 25 -39 13 -75 24
-80 23 -6 0 20 -11 58 -25z"/>
<path d="M5225 8790 c11 -5 27 -9 35 -9 9 0 8 4 -5 9 -11 5 -27 9 -35 9 -9 0
-8 -4 5 -9z"/>
<path d="M5295 8770 c11 -5 27 -9 35 -9 9 0 8 4 -5 9 -11 5 -27 9 -35 9 -9 0
-8 -4 5 -9z"/>
<path d="M5352 8755 c15 -15 624 -156 666 -154 9 0 -53 16 -138 34 -85 18
-237 54 -337 79 -184 47 -200 50 -191 41z"/>
<path d="M6048 8593 c6 -2 18 -2 25 0 6 3 1 5 -13 5 -14 0 -19 -2 -12 -5z"/>
<path d="M6103 8583 c9 -2 23 -2 30 0 6 3 -1 5 -18 5 -16 0 -22 -2 -12 -5z"/>
<path d="M6210 8564 c36 -7 74 -13 85 -12 11 0 -9 6 -45 14 -36 7 -74 13 -85
12 -11 0 9 -6 45 -14z"/>
<path d="M6385 8534 c39 -7 79 -13 90 -12 11 0 -9 6 -45 14 -36 7 -76 13 -90
12 -14 0 7 -6 45 -14z"/>
<path d="M10190 8489 c-65 -54 -100 -91 -94 -101 4 -7 11 -3 18 10 6 11 31 36
56 57 60 50 66 55 55 55 -6 -1 -21 -10 -35 -21z"/>
<path d="M8429 4584 c-13 -15 -18 -25 -10 -22 13 4 49 48 39 48 -2 0 -15 -12
-29 -26z"/>
<path d="M8693 4543 c-15 -5 -17 -23 -4 -23 5 0 11 7 15 15 3 8 4 15 3 14 -1
0 -8 -3 -14 -6z"/>
<path d="M8216 4475 c-16 -12 -17 -15 -4 -15 8 0 21 7 28 15 16 19 1 19 -24 0z"/>
<path d="M8100 1706 c0 -2 8 -10 18 -17 15 -13 16 -12 3 4 -13 16 -21 21 -21
13z"/>
<path d="M7518 1663 c6 -2 18 -2 25 0 6 3 1 5 -13 5 -14 0 -19 -2 -12 -5z"/>
<path d="M5728 1423 c7 -3 16 -2 19 1 4 3 -2 6 -13 5 -11 0 -14 -3 -6 -6z"/>
<path d="M5428 1353 c17 -2 47 -2 65 0 17 2 3 4 -33 4 -36 0 -50 -2 -32 -4z"/>
<path d="M10774 1232 c7 -12 109 -29 314 -52 275 -32 261 -21 -28 21 -295 43
-293 42 -286 31z"/>
<path d="M11348 1153 c12 -2 30 -2 40 0 9 3 -1 5 -23 4 -22 0 -30 -2 -17 -4z"/>
<path d="M11428 1143 c6 -2 18 -2 25 0 6 3 1 5 -13 5 -14 0 -19 -2 -12 -5z"/>
<path d="M9248 853 c6 -2 18 -2 25 0 6 3 1 5 -13 5 -14 0 -19 -2 -12 -5z"/>
<path d="M9298 843 c7 -3 16 -2 19 1 4 3 -2 6 -13 5 -11 0 -14 -3 -6 -6z"/>
<path d="M8170 736 c0 -2 8 -10 18 -17 15 -13 16 -12 3 4 -13 16 -21 21 -21
13z"/>
</g>
</svg>
